<?xml version="1.0" encoding="utf-8"?>
<!-- Generator: Adobe Illustrator 24.3.0, SVG Export Plug-In . SVG Version: 6.00 Build 0)  -->
<svg version="1.1" id="Layer_1" xmlns="http://www.w3.org/2000/svg" xmlns:xlink="http://www.w3.org/1999/xlink" x="0px" y="0px"
	 viewBox="0 0 250 177.5" style="enable-background:new 0 0 250 177.5;" xml:space="preserve">
<style type="text/css">
	.st0{display:none;fill:url(#SVGID_1_);}
	.st1{display:none;}
	.st2{display:inline;}
	.st3{fill:url(#SVGID_2_);}
	.st4{fill:url(#SVGID_3_);}
	.st5{fill:url(#SVGID_4_);}
	.st6{fill:url(#SVGID_5_);}
	.st7{fill:url(#SVGID_6_);}
	.st8{fill:url(#SVGID_7_);}
	.st9{fill:#2985FE;}
	.st10{fill:#FFFFFF;stroke:#FFFFFF;stroke-miterlimit:10;}
</style>
<linearGradient id="SVGID_1_" gradientUnits="userSpaceOnUse" x1="14.52" y1="89.1283" x2="235.47" y2="89.1283" gradientTransform="matrix(1 0 0 -1 0 177.8898)">
	<stop  offset="0" style="stop-color:#388DFC"/>
	<stop  offset="1" style="stop-color:#4C4EEA"/>
</linearGradient>
<path class="st0" d="M234.8,108.5L220.4,86c2-1.7,3.9-3.5,5.8-5.4c1.1-1.1,1.4-2.7,0.7-4.1l-24.3-52.7c-0.5-1.1-1.5-1.8-2.6-2
	c-1.2-0.2-2.3,0.2-3.2,1c-10,10-21.8,17.9-34.9,23.3s-27,8.2-41.2,8.2H18.1c-1.2,0-2.4,0.6-3,1.7c-0.4,0.6-0.6,1.3-0.6,1.9h0v41.6
	c0,0.5,0.1,1,0.3,1.5l24.3,52.7l0,0c0.6,1.2,1.8,2.1,3.3,2.1h189.4c2,0,3.6-1.6,3.6-3.6v-41.6C235.5,109.8,235.2,109.1,234.8,108.5z
	 M21.7,74.3l17.1,37.1v4.1L21.7,78.3V74.3z M49.2,61.5h55.4l4.7,10.1c-9,1.5-19.9,4.7-19.9,11.8c0,10.3,22.8,12.5,31.3,13l4.9,10.6
	H75c-2.6-8.2-15.1-14-31.2-14c-1.8,0-3.7,0.1-5.5,0.2L29.5,74C39.8,72,47,67.3,49.2,61.5z M117.3,88.9C105,87.9,98.1,85,96.7,83.4
	c1.1-1.2,5.8-3.6,15.7-5L117.3,88.9z M127.6,127.8H46V125h81.6V127.8z M44.8,107l-3.1-6.8c0.7,0,1.5-0.1,2.2-0.1
	c11.5,0,19.7,3.4,22.9,6.8H44.8L44.8,107z M127.6,117.8H46v-3.7h81.6V117.8z M46,135h81.6v2.9H46V135z M134.8,114.2c0,0,12,0,12.9,0
	v34.4h-12.9V114.2z M154.9,135h73.4v2.9h-73.4V135z M154.9,127.8V125h73.4v2.8H154.9z M154.9,117.8v-3.7h73.4v3.7H154.9z M225.3,107
	H185c1.3-0.5,2.6-1,3.9-1.5c9.3-3.8,17.9-8.8,25.8-14.9L225.3,107z M206.9,87.4c-1.6-5.3,2-12.5,8.9-17.8l3.5,7.7
	C215.4,80.9,211.3,84.3,206.9,87.4z M198.2,31.4l3,6.5c-6.6,3.3-12.7,4.7-17.1,4.6C189,39.2,193.7,35.5,198.2,31.4z M164.6,52.8
	c3.7-1.5,7.3-3.3,10.8-5.2c2.5,1.4,5.6,2,9.2,2c5.8,0,12.6-1.8,19.6-5.2l8.5,18.4c-11,7.9-16,19.7-11.9,28.5
	c-4.6,2.8-9.5,5.3-14.5,7.3c-10.5,4.4-21.5,7-32.8,7.9l-5.5-11.9c13.9-2.8,17-7.6,17-11.3c0-9.4-19.4-12.1-28.2-12.8l-4.5-9.7
	C143.4,59.8,154.2,57.1,164.6,52.8z M140.3,78.2c11,1.3,16.2,4,17.3,5.2c-0.9,1.1-4.8,3.1-12.8,4.6L140.3,78.2z M124.6,61.4l21,45.5
	c-0.2,0-0.4,0-0.6,0h-11.6l-21-45.5h8.2C122,61.5,123.3,61.5,124.6,61.4z M40.6,61.5c-2.6,2.4-7.5,4.7-14.2,5.8l-2.7-5.8H40.6z
	 M21.7,95.5l17.1,37.1v3.2L21.7,98.7V95.5z M46,145.1h81.6v3.5H46V145.1z M154.9,148.6v-3.5h73.4v3.5H154.9z"/>
<g class="st1">
	<g class="st2">
		
			<linearGradient id="SVGID_2_" gradientUnits="userSpaceOnUse" x1="49.4" y1="136.6598" x2="200.6" y2="136.6598" gradientTransform="matrix(1 0 0 -1 0 177.8898)">
			<stop  offset="0" style="stop-color:#388DFC"/>
			<stop  offset="1" style="stop-color:#4C4EEA"/>
		</linearGradient>
		<polygon class="st3" points="67.4,68.7 125,26.9 182.6,68.7 200.6,68.7 125,13.8 49.4,68.7 		"/>
		<g>
			
				<linearGradient id="SVGID_3_" gradientUnits="userSpaceOnUse" x1="68.49" y1="37.8848" x2="181.52" y2="37.8848" gradientTransform="matrix(1 0 0 -1 0 177.8898)">
				<stop  offset="0" style="stop-color:#388DFC"/>
				<stop  offset="1" style="stop-color:#4C4EEA"/>
			</linearGradient>
			<rect x="68.5" y="134.2" class="st4" width="113" height="11.5"/>
			
				<linearGradient id="SVGID_4_" gradientUnits="userSpaceOnUse" x1="52.34" y1="19.8848" x2="197.67" y2="19.8848" gradientTransform="matrix(1 0 0 -1 0 177.8898)">
				<stop  offset="0" style="stop-color:#388DFC"/>
				<stop  offset="1" style="stop-color:#4C4EEA"/>
			</linearGradient>
			<rect x="52.3" y="152.2" class="st5" width="145.3" height="11.5"/>
		</g>
		<g>
			
				<linearGradient id="SVGID_5_" gradientUnits="userSpaceOnUse" x1="126.67" y1="76.3398" x2="135.94" y2="76.3398" gradientTransform="matrix(1 0 0 -1 0 177.8898)">
				<stop  offset="0" style="stop-color:#388DFC"/>
				<stop  offset="1" style="stop-color:#4C4EEA"/>
			</linearGradient>
			<path class="st6" d="M132.8,95c-1.2-0.9-3.3-1.7-6.1-2.5v18.1c3.9-0.2,6.6-1.6,8.1-4.3c0.8-1.4,1.2-3,1.2-4.8
				C135.9,98.7,134.9,96.5,132.8,95z"/>
			
				<linearGradient id="SVGID_6_" gradientUnits="userSpaceOnUse" x1="115.02" y1="100.5198" x2="123.4" y2="100.5198" gradientTransform="matrix(1 0 0 -1 0 177.8898)">
				<stop  offset="0" style="stop-color:#388DFC"/>
				<stop  offset="1" style="stop-color:#4C4EEA"/>
			</linearGradient>
			<path class="st7" d="M116.9,72.1c-1.3,1.7-1.9,3.5-1.9,5.4c0,2.3,0.8,4,2.3,5.3c1.5,1.3,3.6,2.2,6.1,2.7V69.3
				C120.4,69.4,118.2,70.3,116.9,72.1z"/>
			
				<linearGradient id="SVGID_7_" gradientUnits="userSpaceOnUse" x1="85.52" y1="86.9348" x2="164.48" y2="86.9348" gradientTransform="matrix(1 0 0 -1 0 177.8898)">
				<stop  offset="0" style="stop-color:#388DFC"/>
				<stop  offset="1" style="stop-color:#4C4EEA"/>
			</linearGradient>
			<path class="st8" d="M125,51.5c-21.8,0-39.5,17.7-39.5,39.5c0,21.8,17.7,39.5,39.5,39.5s39.5-17.7,39.5-39.5S146.8,51.5,125,51.5
				z M136.2,112.8c-2.2,1.4-5.4,2.3-9.5,2.8v6.7h-3.3v-6.7c-6.7-0.4-11.2-2.8-13.6-7.1c-1.3-2.3-2-5.4-2-9.4h6.1
				c0.2,3.1,0.7,5.4,1.5,6.9c1.4,2.6,4.1,4,8,4.3V91.7c-5-0.9-8.6-2.5-11-4.7s-3.6-5.2-3.6-9.1c0-3.5,1.3-6.6,3.8-9.4
				c2.6-2.8,6.1-4.2,10.7-4.3v-4.6h3.3v4.5c4.5,0.3,8.1,1.7,10.5,4c2.4,2.4,3.7,5.5,3.8,9.4h-6c-0.2-1.7-0.6-3.2-1.4-4.5
				c-1.4-2.3-3.7-3.5-6.9-3.6v16.7c5.3,1.5,8.9,2.9,10.8,4.2c3.1,2.2,4.6,5.3,4.6,9.6C142.1,105.9,140.1,110.2,136.2,112.8z"/>
		</g>
	</g>
</g>
<g>
	<circle class="st9" cx="125.4" cy="87.7" r="76.1"/>
	<g>
		<polygon class="st10" points="99.9,57.3 109,48.1 151,87.7 109,127.2 99.9,118.1 131.5,87.7 		"/>
	</g>
</g>
</svg>
