<?xml version="1.0" encoding="utf-8"?>
<!-- Generator: Adobe Illustrator 24.3.0, SVG Export Plug-In . SVG Version: 6.00 Build 0)  -->
<svg version="1.1" id="Layer_1" xmlns="http://www.w3.org/2000/svg" xmlns:xlink="http://www.w3.org/1999/xlink" x="0px" y="0px"
	 viewBox="0 0 250 177.5" style="enable-background:new 0 0 250 177.5;" xml:space="preserve">
<style type="text/css">
	.st0{fill:#FFFFFF;}
	.st1{display:none;}
	.st2{display:inline;fill:#54E360;}
	.st3{display:inline;fill:#1FBF66;}
	.st4{display:inline;fill:#E7F0EF;}
	.st5{display:inline;fill:#C5E1E6;}
	.st6{display:inline;fill:#FED843;}
	.st7{display:inline;fill:#FABE2C;}
	.st8{display:inline;fill:#FF9100;}
	.st9{display:inline;}
	.st10{fill:#FED843;}
	.st11{fill:#FABE2C;}
	.st12{fill:#FF9100;}
	.st13{display:inline;fill:#91EB90;}
	.st14{display:inline;fill:#00CBB1;}
	.st15{fill:#F64921;}
	.st16{fill:#1A6F96;}
	.st17{display:inline;fill:#FDBF00;}
	.st18{display:inline;fill:#FFE9CB;}
	.st19{display:inline;fill:#FFD17B;}
	.st20{display:inline;fill:#6BC900;}
	.st21{display:inline;fill:#FF4B00;}
	.st22{display:inline;fill:#FF0000;}
	.st23{display:inline;fill:#00AB5E;}
	.st24{display:inline;fill:#008575;}
	.st25{fill:url(#SVGID_1_);}
	.st26{fill:url(#SVGID_2_);}
	.st27{fill:url(#SVGID_3_);}
	.st28{fill:url(#SVGID_4_);}
	.st29{fill:url(#SVGID_5_);}
	.st30{fill:url(#SVGID_6_);}
	.st31{fill:url(#SVGID_7_);}
	.st32{fill:url(#SVGID_8_);}
	.st33{fill:url(#SVGID_9_);}
	.st34{fill:url(#SVGID_10_);}
	.st35{fill:url(#SVGID_11_);}
	.st36{fill:url(#SVGID_12_);}
	.st37{fill:url(#SVGID_13_);}
</style>
<path class="st0" d="M234.8,108.5L220.4,86c2-1.7,3.9-3.5,5.8-5.4c1.1-1.1,1.4-2.7,0.7-4.1l-24.3-52.7c-0.5-1.1-1.5-1.8-2.6-2
	c-1.2-0.2-2.3,0.2-3.2,1c-10,10-21.8,17.9-34.9,23.3s-27,8.2-41.2,8.2H18.1c-1.2,0-2.4,0.6-3,1.7c-0.4,0.6-0.6,1.3-0.6,1.9h0v41.6
	c0,0.5,0.1,1,0.3,1.5l24.3,52.7l0,0c0.6,1.2,1.8,2.1,3.3,2.1h189.4c2,0,3.6-1.6,3.6-3.6v-41.6C235.5,109.8,235.2,109.1,234.8,108.5z
	 M21.7,74.3l17.1,37.1v4.1L21.7,78.3V74.3z M49.2,61.5h55.4l4.7,10.1c-9,1.5-19.9,4.7-19.9,11.8c0,10.3,22.8,12.5,31.3,13l4.9,10.6
	H75c-2.6-8.2-15.1-14-31.2-14c-1.8,0-3.7,0.1-5.5,0.2L29.5,74C39.8,72,47,67.3,49.2,61.5z M117.3,88.9C105,87.9,98.1,85,96.7,83.4
	c1.1-1.2,5.8-3.6,15.7-5L117.3,88.9z M127.6,127.8H46V125h81.6V127.8z M44.8,107l-3.1-6.8c0.7,0,1.5-0.1,2.2-0.1
	c11.5,0,19.7,3.4,22.9,6.8H44.8L44.8,107z M127.6,117.8H46v-3.7h81.6V117.8z M46,135h81.6v2.9H46V135z M134.8,114.2c0,0,12,0,12.9,0
	v34.4h-12.9V114.2z M154.9,135h73.4v2.9h-73.4V135z M154.9,127.8V125h73.4v2.8H154.9z M154.9,117.8v-3.7h73.4v3.7H154.9z M225.3,107
	H185c1.3-0.5,2.6-1,3.9-1.5c9.3-3.8,17.9-8.8,25.8-14.9L225.3,107z M206.9,87.4c-1.6-5.3,2-12.5,8.9-17.8l3.5,7.7
	C215.4,80.9,211.3,84.3,206.9,87.4z M198.2,31.4l3,6.5c-6.6,3.3-12.7,4.7-17.1,4.6C189,39.2,193.7,35.5,198.2,31.4z M164.6,52.8
	c3.7-1.5,7.3-3.3,10.8-5.2c2.5,1.4,5.6,2,9.2,2c5.8,0,12.6-1.8,19.6-5.2l8.5,18.4c-11,7.9-16,19.7-11.9,28.5
	c-4.6,2.8-9.5,5.3-14.5,7.3c-10.5,4.4-21.5,7-32.8,7.9l-5.5-11.9c13.9-2.8,17-7.6,17-11.3c0-9.4-19.4-12.1-28.2-12.8l-4.5-9.7
	C143.4,59.8,154.2,57.1,164.6,52.8z M140.3,78.2c11,1.3,16.2,4,17.3,5.2c-0.9,1.1-4.8,3.1-12.8,4.6L140.3,78.2z M124.6,61.4l21,45.5
	c-0.2,0-0.4,0-0.6,0h-11.6l-21-45.5h8.2C122,61.5,123.3,61.5,124.6,61.4z M40.6,61.5c-2.6,2.4-7.5,4.7-14.2,5.8l-2.7-5.8H40.6z
	 M21.7,95.5l17.1,37.1v3.2L21.7,98.7V95.5z M46,145.1h81.6v3.5H46V145.1z M154.9,148.6v-3.5h73.4v3.5H154.9z"/>
<g class="st1">
	<path class="st2" d="M-211.8-243.2c-41.4,0-75,33.7-75,75s33.6,75,75,75s75-33.7,75-75S-170.4-243.2-211.8-243.2z"/>
	<path class="st3" d="M-211.8-243.2v150c41.4,0,75-33.7,75-75S-170.4-243.2-211.8-243.2L-211.8-243.2z"/>
	<path class="st4" d="M-218.5-146.1c-2.3,0-4.6-0.9-6.2-2.6l-13.4-13.4c-3.4-3.4-3.4-9,0-12.5s9-3.4,12.5,0l7.1,7.1l20.5-20.5
		c3.4-3.4,9-3.4,12.5,0s3.4,9,0,12.5l-26.7,26.7C-213.9-147-216.1-146.1-218.5-146.1L-218.5-146.1z"/>
	<path class="st5" d="M-185.5-187.9c-3.4-3.4-9-3.4-12.5,0l-13.8,13.8v25l26.3-26.3C-182.1-178.8-182.1-184.4-185.5-187.9z"/>
</g>
<g class="st1">
	<path class="st6" d="M376.4,355.7h-56.9l-11.3,8.8h-8.8c-2.4,0-4.4,2-4.4,4.4v8.8c0,2.4,2,4.4,4.4,4.4h8.8l11,8.8h59.6l8.5-8.8
		v-17.6L376.4,355.7z"/>
	<path class="st7" d="M352.2,390.9h26.6l8.5-8.8v-17.6l-11-8.8h-24.2"/>
	<path class="st7" d="M352.2,382.1h-44c-2.4,0-4.4,2-4.4,4.4v8.8c0,2.4,2,4.4,4.4,4.4h79.1v-17.6L352.2,382.1L352.2,382.1z"/>
	<path class="st8" d="M352.2,382.1h35.2v17.6h-35.2V382.1z"/>
	<path class="st7" d="M377.8,338.1h-57.1l-12.4,8.8c-2.4,0-4.4,2-4.4,4.4v8.8c0,2.4,2,4.4,4.4,4.4h79.1v-17.6L377.8,338.1z"/>
	<path class="st7" d="M387.4,346.9l-9.6-8.8h-25.5v26.4h35.2L387.4,346.9L387.4,346.9z"/>
	<path class="st6" d="M376.1,320.6h-45.9l-13.2,8.8h-17.6c-2.4,0-4.4,2-4.4,4.4v8.8c0,2.4,2,4.4,4.4,4.4h87.9v-17.6L376.1,320.6z"/>
	<path class="st7" d="M387.4,329.4l-11.3-8.8h-23.9v26.4h35.2V329.4z"/>
	<path class="st7" d="M387.4,311.8h-70.3c-2.4,0-4.4,2-4.4,4.4v8.8c0,2.4,2,4.4,4.4,4.4h70.3c2.4,0,4.4-2,4.4-4.4v-8.8
		C391.8,313.7,389.8,311.8,387.4,311.8z"/>
	<path class="st8" d="M391.8,325v-8.8c0-2.4-2-4.4-4.4-4.4h-35.2v17.6h35.2C389.8,329.4,391.8,327.4,391.8,325z"/>
	<g class="st9">
		<circle class="st10" cx="387.4" cy="360.1" r="39.5"/>
		<path class="st11" d="M426.9,360.1c0-21.8-17.7-39.5-39.5-39.5v79.1C409.2,399.7,426.9,382,426.9,360.1z"/>
		<g>
			<path class="st11" d="M395.9,358c-2.4-1.2-5-1.8-7.7-2.2c-2-0.4-4-0.7-5.1-1.4c-0.6-0.3-0.6-0.4-0.6-0.9c0-0.3,0.5-0.9,1.5-1.4
				c2.4-1.2,5.8-1.1,7.5,0.2c1.9,1.5,4.7,1.1,6.1-0.9c1.5-1.9,1.1-4.7-0.9-6.1c-1.5-1.1-3.1-1.9-5-2.3V342c0-2.4-2-4.4-4.4-4.4
				c-2.4,0-4.4,2-4.4,4.4v1.2c-1,0.3-2,0.7-3,1.1c-4,2-6.3,5.4-6.3,9.2s1.8,6.8,5.2,8.7c2.4,1.2,5,1.8,7.7,2.2c2,0.4,4,0.7,5.1,1.4
				c0.6,0.3,0.6,0.4,0.6,0.9c0,0.3-0.5,0.9-1.5,1.4c-2.4,1.2-5.8,1.1-7.5-0.2c-1.9-1.5-4.7-1.1-6.1,0.9c-1.5,1.9-1.1,4.7,0.9,6.1
				c1.5,1.1,3.1,1.9,5,2.3v1.1c0,2.4,2,4.4,4.4,4.4c2.4,0,4.4-2,4.4-4.4v-1.2c1-0.3,2-0.7,3-1.1c4-2,6.3-5.4,6.3-9.2
				C401.1,362.9,399.3,359.9,395.9,358L395.9,358z"/>
			<g>
				<g>
					<path class="st12" d="M391.5,352.4c1.9,1.5,4.7,1.1,6.1-0.9c1.5-1.9,1.1-4.7-0.9-6.1c-1.5-1.1-3.1-1.9-5-2.3v-1.1
						c0-2.4-2-4.4-4.4-4.4v13.8C389,351.3,390.5,351.6,391.5,352.4z"/>
					<path class="st12" d="M391.8,378.3v-1.2c1-0.3,2-0.7,3-1.1c4-2,6.3-5.4,6.3-9.2c0-3.9-1.8-6.8-5.2-8.7c-2.4-1.2-5-1.8-7.7-2.2
						c-0.3,0-0.5-0.1-0.8-0.1v8.9c1.7,0.3,3.3,0.7,4.3,1.2c0.6,0.3,0.6,0.4,0.6,0.9c0,0.3-0.5,0.9-1.5,1.4c-1,0.5-2.2,0.8-3.4,0.8
						v13.8C389.8,382.7,391.8,380.7,391.8,378.3L391.8,378.3z"/>
				</g>
			</g>
		</g>
	</g>
	<path class="st13" d="M372.9,268.5l-17.6-17.6c-0.9-0.9-2-1.3-3.1-1.3s-2.2,0.4-3.1,1.3l-17.6,17.6c-1.3,1.3-1.6,3.1-1,4.8
		c0.7,1.6,2.3,2.7,4.1,2.7h4.4v13.8c0,2.4,2,4.4,4.4,4.4H361c2.4,0,4.4-2,4.4-4.4V276h4.4c1.8,0,3.4-1.1,4.1-2.7
		C374.5,271.7,374.2,269.8,372.9,268.5L372.9,268.5z"/>
	<path class="st14" d="M365.4,289.8V276h4.4c1.8,0,3.4-1.1,4.1-2.7c0.7-1.6,0.3-3.5-1-4.8l-17.6-17.6c-0.9-0.9-2-1.3-3.1-1.3v44.5
		h8.8C363.4,294.2,365.4,292.2,365.4,289.8z"/>
</g>
<g class="st1">
	<g class="st9">
		<g>
			<g>
				<path class="st15" d="M431.9,263.2c-0.5-0.5-1.3-0.9-2.1-0.9s-1.5,0.3-2.1,0.9s-0.9,1.3-0.9,2.1c0,0.8,0.3,1.5,0.9,2.1
					c0.5,0.5,1.3,0.9,2.1,0.9s1.5-0.3,2.1-0.9c0.5-0.5,0.9-1.3,0.9-2.1C432.8,264.5,432.5,263.8,431.9,263.2z"/>
			</g>
		</g>
		<g>
			<g>
				<path class="st15" d="M544.6,183.5c-0.5-0.6-1.3-0.9-2.1-0.9s-1.5,0.3-2.1,0.9c-0.5,0.5-0.9,1.3-0.9,2.1s0.3,1.5,0.9,2.1
					c0.5,0.5,1.3,0.9,2.1,0.9s1.5-0.3,2.1-0.9c0.5-0.5,0.9-1.3,0.9-2.1S545.1,184.1,544.6,183.5z"/>
			</g>
		</g>
		<g>
			<g>
				<path class="st15" d="M556.2,130.8c-0.5-0.6-1.3-0.9-2.1-0.9H482c-1.6,0-2.9,1.3-2.9,2.9v8.4l-27.8,7.4c-1.6,0.4-2.5,2-2.1,3.6
					l14.4,53.7l-12.5,12.4c-1.6-2.3-4.2-3.8-7.3-3.8h-28.1c-4.9,0-8.8,3.9-8.8,8.8v47.8c0,4.9,3.9,8.8,8.8,8.8h28.1
					c4.1,0,7.6-2.9,8.5-6.7l3.5,3c2.7,2.4,6.1,3.6,9.7,3.6h88.4c1.6,0,2.9-1.3,2.9-2.9V132.9C557,132.1,556.7,131.4,556.2,130.8z
					 M446.9,271.2c0,1.6-1.3,2.9-2.9,2.9h-28.1c-1.6,0-2.9-1.3-2.9-2.9v-47.8c0-1.6,1.3-2.9,2.9-2.9h11.1v33.8
					c0,1.6,1.3,2.9,2.9,2.9s2.9-1.3,2.9-2.9v-33.8h11.1c1.6,0,2.9,1.3,2.9,2.9L446.9,271.2L446.9,271.2z M455.7,153.6l23.4-6.3v10.9
					l-2,0.5c-0.8,0.2-1.4,0.7-1.8,1.4c-0.4,0.7-0.5,1.5-0.3,2.2c1.1,4.2-1.4,8.5-5.6,9.7c-0.8,0.2-1.4,0.7-1.8,1.4
					c-0.4,0.7-0.5,1.5-0.3,2.2l11.4,42.3h-5.9l-3-11.9c-0.1-0.4-0.3-0.7-0.5-1L455.7,153.6z M479.1,171.6v24.7l-5.3-19.8
					C476,175.4,477.8,173.7,479.1,171.6z M521.2,274.1h-55.5l0,0c-2.1,0-4.2-0.8-5.9-2.2l-7.1-6.2v-40.5l12.8-12.8l2.3,9.1
					c0.3,1.3,1.5,2.2,2.8,2.2h57.6c2.3,0,4.1,1.8,4.1,4.1c0,2.3-1.8,4.1-4.1,4.1h-29.5c-1.6,0-2.9,1.3-2.9,2.9s1.3,2.9,2.9,2.9h38.7
					c2.3,0,4.1,1.8,4.1,4.1s-1.8,4.1-4.1,4.1h-38.7c-1.6,0-2.9,1.3-2.9,2.9s1.3,2.9,2.9,2.9h32.4c2.3,0,4.1,1.8,4.1,4.1
					s-1.8,4.1-4.1,4.1h-32.4c-1.6,0-2.9,1.3-2.9,2.9s1.3,2.9,2.9,2.9h22.4c2.3,0,4.1,1.8,4.1,4.1
					C525.3,272.2,523.4,274.1,521.2,274.1z M551.2,274.1L551.2,274.1h-20.9c0.6-1.2,0.9-2.6,0.9-4.1s-0.3-2.9-0.9-4.1h0.9
					c5.5,0,10-4.5,10-10c0-1.6-0.4-3.1-1.1-4.5c4.2-1.2,7.3-5,7.3-9.6c0-2.2-0.7-4.3-2-5.9v-37.1c0-1.6-1.3-2.9-2.9-2.9
					s-2.9,1.3-2.9,2.9v33.3c-0.7-0.1-1.4-0.2-2.1-0.2h-0.1c0.6-1.2,0.9-2.6,0.9-4.1c0-5.5-4.5-10-10-10h-4.7c5-2.1,8.5-7.1,8.5-12.9
					c0-7.7-6.3-14-14-14c-7.7,0-14,6.3-14,14c0,5.8,3.5,10.8,8.5,12.9h-16v-55.7c5.2-1.1,9.4-5.3,10.5-10.5h22
					c1.1,5.2,5.3,9.4,10.5,10.5v9.1c0,1.6,1.3,2.9,2.9,2.9s2.9-1.3,2.9-2.9v-11.7c0-1.6-1.3-2.9-2.9-2.9c-4.3,0-7.9-3.5-7.9-7.9
					c0-1.6-1.3-2.9-2.9-2.9h-27.3c-1.6,0-2.9,1.3-2.9,2.9c0,4.4-3.5,7.9-7.9,7.9c-1.6,0-2.9,1.3-2.9,2.9v58.3h-5.7v-82.1h66.2
					L551.2,274.1L551.2,274.1z M518,213.1c-4.5,0-8.2-3.7-8.2-8.2s3.7-8.2,8.2-8.2s8.2,3.7,8.2,8.2
					C526.2,209.4,522.5,213.1,518,213.1z"/>
			</g>
		</g>
	</g>
</g>
<g class="st1">
	<g class="st9">
		<g id="money_5_9_">
			<g>
				<path class="st16" d="M868.3,387.4c0-8.3-6.8-15.1-15.1-15.1c-0.4,0-0.7,0.1-1.1,0.1c1.5-3.5,2.3-7.5,2.3-11.8
					c0-10.1-12.9-33.2-21.3-40.9c-4.6,1-9.5,1.5-14.6,1.5c-5.2,0-10.3-0.6-15-1.6c-8.3,6.7-22.9,30.6-22.9,41c0,1.8,0.2,3.4,0.5,5
					c-2.5-0.2-5.1-0.3-7.7-0.3c-6.7,0-13.2,0.7-19.4,2.1c-0.2-2.2-0.3-3.6-0.3-3.6h-40c0,0-1.8,14.7-1.8,32.7s1.8,32.7,1.8,32.7h40
					c0,0,0.3-3.8,0.7-9.2c6-1,12,0.6,19.1,5c8.9,5.8,19.9,9.3,31.8,9.3c12.1,0,22.5-3.6,31.1-9.5l0,0c0.1-0.1,0.2-0.1,0.3-0.3
					c2.4-1.7,4.8-3.6,6.9-5.7c1.7-1.7,4-3.9,7.4-7.3c11.5-11.3,13-13.6,13-13.6s0,0,0,0C866.7,395.1,868.3,391.4,868.3,387.4z
					 M808.8,348.1c0.4-0.9,0.9-1.7,1.6-2.4c0.7-0.7,1.5-1.3,2.4-1.7c0.9-0.5,1.9-0.8,3-0.9v-2.6h5.6v3c0.8,0.2,1.6,0.5,2.2,0.9v-1.2
					h5.6v8.3h-5.6c-0.5-0.5-0.9-0.9-1.3-1.3c-0.4-0.4-0.9-0.7-1.3-1c-0.5-0.2-1-0.4-1.6-0.6s-1.2-0.2-2-0.2c-1.1,0-2,0.3-2.6,0.8
					c-0.6,0.5-0.9,1.1-0.9,1.7c0,1.7,1.8,2.9,5.6,3.4c2.3,0.3,4.1,0.9,5.5,1.7c1.3,0.8,2.4,1.6,3.1,2.5c0.7,0.9,1.2,1.8,1.4,2.7
					s0.3,1.6,0.3,2.1c0,1.1-0.2,2-0.6,3c-0.4,0.9-1,1.7-1.7,2.4c-0.7,0.7-1.6,1.2-2.6,1.7c-1,0.4-2.1,0.7-3.3,0.8v2.5h-5.6v-3.2
					c-0.3-0.1-0.6-0.3-0.9-0.4c-0.3-0.1-0.5-0.2-0.8-0.4v1.2h-5.6v-8.3h5.6c0.5,0.5,0.9,1,1.4,1.4c0.5,0.4,0.9,0.7,1.4,0.9
					c0.5,0.3,1,0.4,1.6,0.6c0.6,0.1,1.3,0.2,2,0.2c1,0,1.8-0.2,2.5-0.6c0.7-0.4,1-0.9,1-1.6c0-0.5-0.2-1-0.5-1.5
					c-0.3-0.4-0.8-0.8-1.3-1c-0.5-0.3-1.1-0.5-1.8-0.7s-1.3-0.3-1.9-0.4c-2.2-0.3-4-0.9-5.4-1.6s-2.4-1.5-3.1-2.3
					c-0.7-0.9-1.2-1.7-1.4-2.6c-0.2-0.9-0.3-1.7-0.3-2.4C808.3,349.9,808.5,349,808.8,348.1z M859.1,393.3c-2,2-10.6,10.8-12.9,13.1
					c-6,5.9-8.8,8.6-10.1,10.2l0,0c-0.9,0.8-1.9,1.6-2.9,2.3c-7.7,5.2-17.4,8.4-27.8,8.4c-10.5,0-20.3-3.2-28-8.5h0
					c-6.7-4.1-14.6-6.6-22.4-5.9c0.3-5.4,0.6-11.3,0.6-16.4c0-7-0.5-15.7-0.9-22.3c5.9-1.3,12.3-2.1,18.8-2.1
					c20.1,0,37.9,6.6,48.8,17.1c1.3,1.4,2.1,3.3,2.1,5.4c0,4.5-3.6,8.1-8.1,8.1c-0.2,0-0.3,0-0.5-0.1l0,0.1
					c-4.2-0.1-10.7-1.9-21.7-6.1l-2.5,6.6c11.6,4.4,19.3,6.4,24.8,6.6v0c6.8,0,12.6-4.6,14.4-10.8v0c2.3-3.9,11.2-12.1,16.2-16.5v0
					c0.1-0.1,0.1-0.1,0.1-0.1c0.9-0.8,1.7-1.5,2.3-2c1.1-0.7,2.2-1,3.9-1c4.5,0,8.1,3.6,8.1,8.1
					C861.3,389.6,860.3,391.7,859.1,393.3z"/>
				<path class="st16" d="M805.4,314.6c0,0,6.8,1.6,13.5,1.6c6.7,0,11-0.9,11-0.9c3.9-1.9,12.5-21.9,7.5-29
					c-5.7-7.9-15.2,9.2-19.6,7.5c-4.4-1.8-13.7-10.9-19.9-7.2C792.5,289.9,801.2,311.5,805.4,314.6z"/>
			</g>
		</g>
	</g>
</g>
<g class="st1">
	<path class="st17" d="M932.6,97.4c0,25.7-20.9,46.7-46.7,46.7s-46.7-20.9-46.7-46.7s20.9-46.7,46.7-46.7
		C911.7,50.7,932.6,71.7,932.6,97.4z"/>
	<path class="st8" d="M932.6,97.4c0,25.7-20.9,46.7-46.7,46.7V50.7C911.7,50.7,932.6,71.7,932.6,97.4z"/>
	<path class="st18" d="M923.8,97.4c0,20.9-17,37.9-37.8,37.9l0,0c-20.9,0-37.8-17-37.8-37.9s17-37.9,37.8-37.9l0,0
		C906.8,59.6,923.8,76.5,923.8,97.4L923.8,97.4z"/>
	<path class="st19" d="M923.8,97.4c0,20.9-17,37.9-37.8,37.9V59.6C906.8,59.6,923.8,76.5,923.8,97.4z"/>
	<path class="st20" d="M954,128.9c-8.4,18.2-23.4,32-42.1,38.9c-8.4,3.1-17,4.6-25.7,4.6h-0.2c-6.9,0-13.7-1-20.5-2.9
		c-2.3-0.7-3.7-3.1-3-5.5c0.7-2.3,3.1-3.7,5.5-3c5.9,1.7,12,2.6,18,2.6c7.7,0,15.4-1.3,22.9-4.1c47.9-17.6,58.4-80.7,19.5-113
		c-1.9-1.6-2.1-4.3-0.6-6.2c1.6-1.9,4.3-2.1,6.2-0.6C958.9,60.5,968.8,96.8,954,128.9L954,128.9z"/>
	<path class="st17" d="M903.6,105.9c0,6.8-5.3,12.9-13.2,12.9v3.8c0,2.4-2,4.4-4.4,4.4c-2.4,0-4.4-2-4.4-4.4v-3.8
		c-3.3,0-6.2-0.6-9.3-2.7c-2-1.4-2.5-4.1-1.1-6.1s4.1-2.5,6.1-1.1c1.1,0.7,2.3,1.2,3.4,1.2h10c2.3,0,4.1-1.8,4.1-4.1
		s-1.8-4.1-4.1-4.1h-9.5c-7.1,0-12.9-5.8-12.9-12.9c0-6.8,5.3-12.9,13.2-12.9v-3.8c0-2.4,2-4.4,4.4-4.4s4.4,2,4.4,4.4V76
		c3.8,0,7.9,1.6,10.8,4.8c1.7,1.8,1.6,4.6-0.2,6.2c-1.8,1.7-4.6,1.6-6.2-0.2c-1.2-1.2-2.8-2-4.4-2h-9.1c-2.3,0-4.1,1.8-4.1,4.1
		s1.8,4.1,4.1,4.1h9.5C897.8,93,903.6,98.8,903.6,105.9L903.6,105.9z"/>
	<path class="st8" d="M890.3,84.8h-4.4V67.7c2.4,0,4.4,2,4.4,4.4V76c3.8,0,7.9,1.6,10.8,4.8c1.7,1.8,1.6,4.6-0.2,6.2
		c-1.8,1.7-4.6,1.6-6.2-0.2C893.5,85.6,891.9,84.8,890.3,84.8z"/>
	<path class="st21" d="M904.7,29.3c-0.5,2.4-2.8,3.9-5.2,3.4c-4.5-1-9-1.4-13.5-1.4c-7.8,0-15.5,1.3-22.9,4.1
		c-47.9,17.6-58.4,80.7-19.5,113l-5.6,6.8C794,118.6,805.4,47,860,27c8.4-3.1,17.1-4.6,25.9-4.6c5.2,0,10.3,0.5,15.4,1.6
		C903.7,24.6,905.2,26.9,904.7,29.3L904.7,29.3z"/>
	<path class="st22" d="M904.7,29.3c-0.5,2.4-2.8,3.9-5.2,3.4c-4.5-1-9-1.4-13.5-1.4v-8.8c5.2,0,10.3,0.5,15.4,1.6
		C903.7,24.6,905.2,26.9,904.7,29.3L904.7,29.3z"/>
	<path class="st22" d="M839.9,156l-18.2-3.5c-2.4-0.5-4-2.8-3.5-5.2c0.5-2.4,2.8-4,5.2-3.5l12.1,2.3l-1.5-10.8
		c-0.3-2.4,1.3-4.6,3.8-5c2.4-0.4,4.7,1.3,5,3.8l2.4,16.9C845.5,154,842.9,156.6,839.9,156z"/>
	<path class="st8" d="M903.6,105.9c0,6.8-5.3,12.9-13.2,12.9v3.8c0,2.4-2,4.4-4.4,4.4V110h4.7c2.3,0,4.1-1.8,4.1-4.1
		s-1.8-4.1-4.1-4.1h-4.7V93h4.7C897.8,93,903.6,98.8,903.6,105.9L903.6,105.9z"/>
	<path class="st23" d="M933.9,39.7l-5.6,6.8c38.9,32.3,28.4,95.4-19.5,113c-7.4,2.7-15.1,4.1-22.9,4.1v8.8h0.2
		c8.7,0,17.4-1.5,25.7-4.6c18.8-6.9,33.7-20.7,42.1-38.9C968.8,96.8,958.9,60.5,933.9,39.7L933.9,39.7z"/>
	<path class="st24" d="M929.1,60.7l-2.4-17c-0.4-3,2.2-5.5,5.2-5l18.2,3.5c2.4,0.5,4,2.8,3.5,5.2c-0.5,2.4-2.8,4-5.2,3.5l-12.1-2.3
		l1.5,10.8c0.3,2.4-1.3,4.7-3.8,5C931.7,64.8,929.4,63.1,929.1,60.7z"/>
</g>
<g class="st1">
	<g class="st9">
		
			<image style="overflow:visible;opacity:0.9;enable-background:new    ;" width="340" height="340" xlink:href="F1DEBC9B.png"  transform="matrix(0.4772 0 0 0.4772 489.0665 -84.967)">
		</image>
		<g>
			
				<radialGradient id="SVGID_1_" cx="563.6364" cy="164.8403" r="103.3569" gradientTransform="matrix(1 0 0 -1 0 180)" gradientUnits="userSpaceOnUse">
				<stop  offset="0" style="stop-color:#388DFC"/>
				<stop  offset="0.2662" style="stop-color:#3989FB"/>
				<stop  offset="0.508" style="stop-color:#3C7EF8"/>
				<stop  offset="0.6627" style="stop-color:#4073F5"/>
				<stop  offset="0.827" style="stop-color:#4563F0"/>
				<stop  offset="1" style="stop-color:#4C4EEA"/>
			</radialGradient>
			<path class="st25" d="M632.3,68.2h-130c-5.5,0-10-4.5-10-10v-130c0-5.5,4.5-10,10-10h130c5.5,0,10,4.5,10,10v130
				C642.3,63.8,637.8,68.2,632.3,68.2z"/>
		</g>
	</g>
	<g class="st9">
		<g>
			<path class="st0" d="M564.3-29.5L530-1.3c0,0,0,0.1,0,0.2c0,0.1,0,0.1,0,0.2v28.6c0,1,0.4,1.9,1.1,2.7s1.7,1.1,2.7,1.1h22.9V8.6
				h15.2v22.9h22.9c1,0,1.9-0.4,2.7-1.1s1.1-1.6,1.1-2.7V-1c0-0.2,0-0.3-0.1-0.4L564.3-29.5z"/>
			<path class="st0" d="M611.6-7.8l-13-10.8v-24.3c0-0.6-0.2-1-0.5-1.4s-0.8-0.5-1.4-0.5h-11.4c-0.6,0-1,0.2-1.4,0.5
				s-0.5,0.8-0.5,1.4v11.6l-14.5-12.2c-1.3-1-2.8-1.5-4.5-1.5s-3.3,0.5-4.5,1.5L516.9-7.8c-0.4,0.3-0.6,0.7-0.7,1.3
				c0,0.5,0.1,1,0.4,1.4l3.7,4.4c0.3,0.4,0.7,0.6,1.2,0.7c0.5,0,1-0.1,1.4-0.4l41.2-34.4l41.2,34.4c0.3,0.3,0.7,0.4,1.2,0.4h0.2
				c0.5-0.1,0.9-0.3,1.2-0.6l3.7-4.4c0.3-0.4,0.5-0.9,0.4-1.4C612.2-7,612-7.4,611.6-7.8z"/>
		</g>
	</g>
</g>
<g class="st1">
	<g class="st9">
		
			<image style="overflow:visible;opacity:0.9;enable-background:new    ;" width="340" height="340" xlink:href="F1DEBC99.png"  transform="matrix(0.4772 0 0 0.4772 1049.01 -78.2)">
		</image>
		<g>
			
				<radialGradient id="SVGID_2_" cx="1123.5798" cy="158.0733" r="103.3569" gradientTransform="matrix(1 0 0 -1 0 180)" gradientUnits="userSpaceOnUse">
				<stop  offset="0" style="stop-color:#2CB6A7"/>
				<stop  offset="0.2419" style="stop-color:#2BB2A6"/>
				<stop  offset="0.462" style="stop-color:#29A7A4"/>
				<stop  offset="0.6737" style="stop-color:#2595A0"/>
				<stop  offset="0.8789" style="stop-color:#1F7B9A"/>
				<stop  offset="1" style="stop-color:#1B6896"/>
			</radialGradient>
			<path class="st26" d="M1192.2,75h-130c-5.5,0-10-4.5-10-10V-65c0-5.5,4.5-10,10-10h130c5.5,0,10,4.5,10,10V65
				C1202.2,70.5,1197.7,75,1192.2,75z"/>
		</g>
	</g>
	<g class="st9">
		<g>
			<path class="st0" d="M1147.7,24.3c0.3-0.2,0.4-0.6,0.4-1c0,0,0-55.4,0-55.4c0-0.7-0.6-1.2-1.2-1.2h-35.3
				c-0.9-2.8-3.5-4.9-6.6-4.9c-3.1,0-5.7,2-6.6,4.9h-3.9c-0.7,0-1.2,0.5-1.2,1.2V37c0,0.7,0.6,1.2,1.2,1.2h38.7c0.4,0,0.7-0.2,1-0.5
				L1147.7,24.3z M1134.5,34v-9.5h9.5L1134.5,34z M1105-35.8c1.7,0,3.2,1,4,2.4h-8C1101.8-34.8,1103.3-35.8,1105-35.8z M1095.7-30.9
				h13.8v8.5c0,1.1-0.9,2-2,2s-2-0.9-2-2v-4.9c0-0.7-0.6-1.2-1.2-1.2c-0.7,0-1.2,0.5-1.2,1.2v4.9c0,2.5,2,4.5,4.5,4.5
				c2.5,0,4.5-2,4.5-4.5v-8.5h33.8v53h-12.4c-0.7,0-1.2,0.5-1.2,1.2v12.4h-36.3L1095.7-30.9L1095.7-30.9z"/>
			<path class="st0" d="M1137.2,18c0.7,0,1.2-0.5,1.2-1.2s-0.6-1.2-1.2-1.2h-32.9c-0.7,0-1.2,0.6-1.2,1.2s0.6,1.2,1.2,1.2H1137.2z"
				/>
			<path class="st0" d="M1104.3,10.6h32.9c0.7,0,1.2-0.6,1.2-1.2s-0.6-1.2-1.2-1.2h-32.9c-0.7,0-1.2,0.6-1.2,1.2
				S1103.6,10.6,1104.3,10.6z"/>
			<path class="st0" d="M1104.3,3.3h32.9c0.7,0,1.2-0.5,1.2-1.2s-0.6-1.2-1.2-1.2h-32.9c-0.7,0-1.2,0.5-1.2,1.2
				S1103.6,3.3,1104.3,3.3z"/>
			<path class="st0" d="M1104.3-4h32.9c0.7,0,1.2-0.6,1.2-1.2s-0.6-1.2-1.2-1.2h-32.9c-0.7,0-1.2,0.6-1.2,1.2S1103.6-4,1104.3-4z"/>
			<path class="st0" d="M1104.3-11.3h32.9c0.7,0,1.2-0.6,1.2-1.2s-0.6-1.2-1.2-1.2h-32.9c-0.7,0-1.2,0.6-1.2,1.2
				S1103.6-11.3,1104.3-11.3z"/>
			<path class="st0" d="M1153.4-33.3h-1.6c-0.7,0-1.2,0.5-1.2,1.2s0.6,1.2,1.2,1.2h0.4v66.7h-13c-0.7,0-1.2,0.5-1.2,1.2
				s0.6,1.2,1.2,1.2h14.2c0.7,0,1.2-0.5,1.2-1.2v-69.1C1154.6-32.8,1154.1-33.3,1153.4-33.3z"/>
			<path class="st0" d="M1159.9-33.3h-1.6c-0.7,0-1.2,0.5-1.2,1.2s0.6,1.2,1.2,1.2h0.4v66.7h-0.4c-0.7,0-1.2,0.5-1.2,1.2
				s0.6,1.2,1.2,1.2h1.6c0.7,0,1.2-0.5,1.2-1.2v-69.1C1161.1-32.8,1160.6-33.3,1159.9-33.3z"/>
		</g>
	</g>
</g>
<g class="st1">
	<g class="st9">
		
			<image style="overflow:visible;opacity:0.9;enable-background:new    ;" width="340" height="342" xlink:href="F1DEBC9F.png"  transform="matrix(0.4744 0 0 0.4744 406.4894 -356.3292)">
		</image>
		<g>
			
				<radialGradient id="SVGID_3_" cx="479.1349" cy="459.7302" r="96.1387" gradientTransform="matrix(1 0 0 -1 0 180)" gradientUnits="userSpaceOnUse">
				<stop  offset="0.2462" style="stop-color:#F64921"/>
				<stop  offset="0.4887" style="stop-color:#EF3921"/>
				<stop  offset="1" style="stop-color:#E31A22"/>
			</radialGradient>
			<path class="st27" d="M549.2-203.1h-130c-5.5,0-10-4.5-10-10v-130c0-5.5,4.5-10,10-10h130c5.5,0,10,4.5,10,10v130
				C559.2-207.6,554.7-203.1,549.2-203.1z"/>
		</g>
	</g>
	<g class="st9">
		<g>
			<path class="st0" d="M505.5-258.9v10.1c0,1.6-1.3,2.9-2.9,2.9h-41.1c-1.6,0-2.9-1.3-2.9-2.9v-58.8c0-1.6,1.3-2.9,2.9-2.9h41.1
				c1.6,0,2.9,1.3,2.9,2.9v10.1l5.9,5.1v-15.2c0-4.9-4-8.8-8.8-8.8h-41.1c-4.9,0-8.8,4-8.8,8.8v58.8c0,4.9,4,8.8,8.8,8.8h41.1
				c4.9,0,8.8-3.9,8.8-8.8V-264L505.5-258.9z"/>
			<g>
				<path class="st0" d="M493.8-259c0,0-2.9,0.8-2.9-2.9c0-0.9,0-3.7,0-7.4h-17.6c-1.6,0-2.9-1.3-2.9-2.9V-284
					c0-1.6,1.3-2.9,2.9-2.9h17.6c0-3.5,0-6.3,0-7.4c0-4,2.9-2.9,2.9-2.9l22,19.1L493.8-259z"/>
			</g>
		</g>
	</g>
</g>
<g class="st1">
	<g class="st9">
		<path class="st0" d="M784.2-190.6c-3-0.2-9.3,3.3-11,4.2c-6.1,3.2-14.6,8.2-20.1,12.2c-0.4,0.3-0.9,0.6-1.3,0.9
			c-2.5,1.7-5.2,2.8-8.1,3.4c-16.2,3.6-39.8,4-39.8,4l-1.4,0.1c-1,0.1-2-0.7-2.1-1.7c-0.2-1.1,0.7-2.2,1.8-2.3l35.1-3.5
			c3.9-0.4,7-4.2,6.5-8.4s-4.2-7.3-8-6.9l-31.2-0.4c-2.1,0-5.5-0.6-7.6-1.2c-20.1-6.1-31.4-0.4-37.5,2.3c-1.3-2.3-3.9-3.8-6.8-3.6
			l-13.4,0.9c-4.5,0.3-7.9,4.2-7.5,8.7l2.1,31c0.3,4.5,4.2,7.9,8.7,7.5l13.4-0.9c2.8-0.2,5.2-2,6.2-4.5l59.1,2.6
			c6.6,0.7,12.8-0.1,18.5-3.2l1.7-0.9l44.7-27.1c2.2-1.3,3.8-3.6,3.8-6.2C790.2-186.9,788.5-190.3,784.2-190.6z M647.6-150.8
			c-2.5,0-4.6-2.1-4.6-4.6s2-4.6,4.6-4.6s4.6,2.1,4.6,4.6C652.2-152.9,650.1-150.8,647.6-150.8z"/>
		<path class="st0" d="M750.3-185.7c0.3,1,0.6,2.1,0.7,3.1c0.1,0.9,0.1,1.8,0,2.6c0.5-0.3,0.9-0.7,1.4-1c4.5-3.3,13.9-8.6,19.2-11.3
			c1.6-0.8,3.3-1.7,5.1-2.3c-2.3-1.6-4.8-1.7-7.3-0.6c-5,2.1-14.3,6.7-19,9.4C750.4-185.9,750.3-185.8,750.3-185.7z"/>
		<path class="st0" d="M757.3-198.9c-3.1,1.3-10,3.6-13.1,5.3c1.3,0.8,2.5,1.9,3.5,3.1c0.2-0.1,0.4-0.3,0.6-0.4l2.2-1.3
			c3.3-1.9,10.3-4.4,14-6.1C762.2-199.9,759.7-200,757.3-198.9z"/>
		<path class="st0" d="M679.8-248.2c0.5,0.6,0.4,1.1,0,1.8c-2,3-3.9,6-5.8,9c-1.8,2.9-0.7,6.3,2.5,7.5c3.3,1.3,6.7,2.6,10,3.8
			c0.7,0.3,0.9,0.6,1,1.3c0.2,3.4,0.5,6.8,0.5,10.1c0,3.4,3,6.5,7.1,5.2c3.2-1,6.6-1.8,9.9-2.7c0.7-0.2,1-0.1,1.5,0.5
			c2.2,2.7,4.4,5.5,6.6,8.1c2.4,3,5.9,3,8.3,0c2.2-2.7,4.4-5.4,6.6-8.2c0.4-0.5,0.8-0.7,1.5-0.5c3.4,0.9,6.8,1.9,10.3,2.8
			c3.5,0.9,6.5-1.2,6.7-4.8c0.2-3.5,0.4-7.1,0.5-10.6c0-0.8,0.4-1.1,1.1-1.4c3.2-1.2,6.5-2.5,9.7-3.7c3.5-1.4,4.6-4.7,2.6-7.9
			c-1.9-2.9-3.8-5.9-5.8-8.8c-0.5-0.6-0.4-1.1,0-1.8c1.9-2.9,3.7-5.7,5.6-8.6c2.2-3.4,1-6.8-2.7-8.1c-3.2-1.2-6.4-2.4-9.6-3.6
			c-0.7-0.3-0.9-0.6-1-1.4c-0.2-3.5-0.4-7-0.5-10.5c-0.2-3.7-3.1-5.8-6.7-4.9c-3.4,0.9-6.8,1.8-10.1,2.8c-0.8,0.2-1.2,0-1.7-0.5
			c-2.1-2.7-4.3-5.4-6.5-8c-2.4-3-5.9-3-8.3,0c-2.1,2.7-4.3,5.3-6.4,8c-0.6,0.8-1.1,0.9-2,0.6c-3.3-0.9-6.6-1.8-9-2.4
			c-4.6-1.1-7.3,0.8-7.6,4.5c-0.3,3.5-0.4,7-0.5,10.6c0,0.8-0.3,1.1-0.9,1.3c-3.3,1.2-6.6,2.5-9.9,3.8c-3.4,1.4-4.5,4.7-2.5,7.8
			C675.9-254,677.8-251.1,679.8-248.2z M704.6-233.3c0.3-1.2,0.7-2.3,1-3.5c0.4-1.4,0.8-1.5,2-0.9c2.1,1.1,4.4,1.7,6.7,2
			c1.5,0.2,3,0,4.4-0.6c2.6-1.1,3-4.2,0.8-6c-0.8-0.6-1.6-1.1-2.5-1.5c-2.3-1-4.7-1.8-6.9-3.1c-3.5-2.1-5.8-5-5.5-9.3
			c0.3-4.9,3-7.9,7.5-9.5c1.8-0.7,1.8-0.6,1.8-2.6c0-0.6,0-1.3,0-2c0-1.5,0.3-1.7,1.7-1.7c0.5,0,0.9,0,1.3,0c3,0,3,0,3.1,3
			c0,2.2,0,2.2,2.2,2.5c1.7,0.3,3.2,0.8,4.8,1.4c0.8,0.4,1.2,1,0.9,1.9c-0.4,1.3-0.8,2.7-1.2,4c-0.4,1.2-0.8,1.4-2,0.8
			c-2.4-1.2-4.9-1.7-7.6-1.5c-0.7,0-1.4,0.1-2,0.4c-2.3,1-2.7,3.5-0.7,5.1c1,0.8,2.1,1.4,3.3,1.9c2,0.8,4.1,1.7,6,2.7
			c6.1,3.4,7.8,11.1,3.5,16.3c-1.6,1.9-3.6,3.2-5.9,3.8c-1,0.3-1.5,0.8-1.5,1.9c0,1,0,2.1,0,3.1c0,0.9-0.5,1.5-1.4,1.5
			c-1.1,0-2.3,0-3.4,0c-1,0-1.5-0.6-1.5-1.6c0-0.8,0-1.5,0-2.3c0-1.7-0.1-1.8-1.7-2c-2.1-0.3-4.2-0.8-6.1-1.7
			C704.3-231.3,704.2-231.7,704.6-233.3z"/>
	</g>
</g>
<g class="st1">
	<g class="st9">
		
			<linearGradient id="SVGID_4_" gradientUnits="userSpaceOnUse" x1="89.5893" y1="406.3083" x2="239.5828" y2="406.3083" gradientTransform="matrix(1 0 0 -1 0 180)">
			<stop  offset="0" style="stop-color:#388DFC"/>
			<stop  offset="1" style="stop-color:#4C4EEA"/>
		</linearGradient>
		<path class="st28" d="M234-247.5c-2.9-0.2-8.8,3.1-10.4,4c-5.8,3-13.8,7.8-19.1,11.5c-0.4,0.2-0.9,0.6-1.2,0.8
			c-2.4,1.6-4.9,2.6-7.7,3.3c-15.3,3.4-37.7,3.8-37.7,3.8l-1.3,0.1c-1,0.1-1.9-0.6-2-1.6c-0.1-1.1,0.6-2.1,1.7-2.2l33.2-3.3
			c3.7-0.4,6.6-4,6.2-8s-3.9-6.9-7.6-6.5l-29.6-0.4c-2,0-5.2-0.6-7.2-1.1c-19.1-5.8-29.8-0.4-35.5,2.1c-1.3-2.2-3.7-3.6-6.4-3.4
			l-12.7,0.9c-4.2,0.3-7.4,4-7.1,8.2l2,29.4c0.3,4.2,4,7.4,8.2,7.1l12.7-0.9c2.7-0.2,4.9-1.9,5.8-4.2l56,2.5
			c6.2,0.7,12.1-0.1,17.6-3.1l1.6-0.9l42.4-25.7c2.1-1.3,3.6-3.4,3.6-5.9C239.7-244,238-247.2,234-247.5z M104.5-209.8
			c-2.4,0-4.3-1.9-4.3-4.3s1.9-4.3,4.3-4.3c2.4,0,4.3,1.9,4.3,4.3C108.8-211.8,106.9-209.8,104.5-209.8z"/>
		
			<linearGradient id="SVGID_5_" gradientUnits="userSpaceOnUse" x1="201.84" y1="424.9801" x2="226.8" y2="424.9801" gradientTransform="matrix(1 0 0 -1 0 180)">
			<stop  offset="0" style="stop-color:#388DFC"/>
			<stop  offset="1" style="stop-color:#4C4EEA"/>
		</linearGradient>
		<path class="st29" d="M201.8-242.9c0.3,0.9,0.6,1.9,0.6,3c0.1,0.8,0.1,1.7,0,2.5c0.4-0.3,0.9-0.6,1.3-0.9
			c4.3-3.1,13.2-8.1,18.2-10.7c1.5-0.8,3.1-1.6,4.8-2.2c-2.2-1.5-4.5-1.6-6.9-0.6c-4.8,1.9-13.5,6.3-18,8.9
			C201.9-243,201.9-242.9,201.8-242.9z"/>
		
			<linearGradient id="SVGID_6_" gradientUnits="userSpaceOnUse" x1="196.03" y1="431.7253" x2="215.28" y2="431.7253" gradientTransform="matrix(1 0 0 -1 0 180)">
			<stop  offset="0" style="stop-color:#388DFC"/>
			<stop  offset="1" style="stop-color:#4C4EEA"/>
		</linearGradient>
		<path class="st30" d="M208.5-255.4c-2.9,1.2-9.5,3.4-12.4,5c1.3,0.8,2.4,1.8,3.3,2.9c0.2-0.1,0.4-0.3,0.6-0.4l2.1-1.2
			c3.1-1.8,9.8-4.2,13.2-5.8C213.1-256.3,210.8-256.4,208.5-255.4z"/>
		
			<linearGradient id="SVGID_7_" gradientUnits="userSpaceOnUse" x1="128.6593" y1="481.315" x2="212.1201" y2="481.315" gradientTransform="matrix(1 0 0 -1 0 180)">
			<stop  offset="0" style="stop-color:#388DFC"/>
			<stop  offset="1" style="stop-color:#4C4EEA"/>
		</linearGradient>
		<path class="st31" d="M135-302c0.4,0.6,0.4,1,0,1.7c-1.9,2.8-3.7,5.7-5.5,8.5c-1.7,2.8-0.6,6,2.4,7.1c3.2,1.2,6.3,2.4,9.5,3.6
			c0.7,0.2,0.9,0.6,0.9,1.3c0.1,3.2,0.5,6.4,0.5,9.6c0,3.3,2.8,6.1,6.7,4.9c3.1-1,6.2-1.7,9.4-2.6c0.6-0.2,1-0.1,1.4,0.5
			c2.1,2.6,4.1,5.2,6.3,7.7c2.3,2.8,5.6,2.8,7.9,0c2.1-2.6,4.1-5.1,6.2-7.8c0.4-0.5,0.7-0.7,1.4-0.5c3.2,0.9,6.5,1.8,9.7,2.6
			c3.3,0.9,6.1-1.1,6.3-4.5c0.2-3.4,0.4-6.7,0.5-10c0-0.8,0.4-1.1,1-1.3c3.1-1.1,6.1-2.3,9.2-3.5c3.3-1.3,4.3-4.5,2.4-7.5
			c-1.8-2.8-3.6-5.6-5.4-8.3c-0.4-0.6-0.4-1,0-1.7c1.8-2.7,3.5-5.4,5.3-8.2c2.1-3.2,1-6.4-2.6-7.7c-3.1-1.1-6.1-2.3-9.1-3.4
			c-0.6-0.2-0.9-0.6-0.9-1.3c-0.1-3.3-0.3-6.6-0.5-9.9c-0.2-3.5-2.9-5.5-6.3-4.6c-3.2,0.9-6.4,1.7-9.6,2.6c-0.7,0.2-1.1,0-1.6-0.5
			c-2-2.5-4.1-5.1-6.2-7.6c-2.2-2.8-5.6-2.8-7.9,0c-2,2.5-4.1,5-6.1,7.6c-0.6,0.7-1.1,0.8-1.9,0.6c-3.1-0.9-6.2-1.7-8.5-2.3
			c-4.4-1-6.9,0.7-7.2,4.3c-0.2,3.4-0.4,6.7-0.5,10c0,0.7-0.3,1-0.9,1.3c-3.1,1.2-6.3,2.4-9.4,3.6c-3.2,1.3-4.2,4.5-2.3,7.4
			C131.3-307.6,133.1-304.8,135-302z M158.5-287.9c0.3-1.1,0.6-2.2,0.9-3.3c0.4-1.3,0.7-1.5,1.9-0.8c2,1,4.1,1.6,6.4,1.9
			c1.4,0.2,2.9,0,4.2-0.5c2.5-1.1,2.9-4,0.8-5.7c-0.7-0.6-1.5-1-2.4-1.4c-2.2-1-4.5-1.7-6.5-2.9c-3.4-2-5.5-4.7-5.2-8.8
			c0.3-4.6,2.9-7.5,7.1-9c1.8-0.6,1.8-0.6,1.8-2.4c0-0.6,0-1.2,0-1.9c0-1.4,0.3-1.6,1.6-1.6c0.4,0,0.8,0,1.3,0c2.9,0,2.9,0,2.9,2.9
			c0,2.1,0,2.1,2.1,2.4c1.6,0.2,3.1,0.7,4.5,1.4c0.8,0.3,1.1,0.9,0.9,1.8c-0.4,1.3-0.7,2.5-1.1,3.8c-0.4,1.2-0.8,1.4-1.9,0.8
			c-2.3-1.1-4.6-1.6-7.2-1.4c-0.6,0-1.3,0.1-1.9,0.4c-2.1,1-2.5,3.3-0.7,4.8c0.9,0.7,2,1.3,3.1,1.8c1.9,0.8,3.9,1.6,5.7,2.5
			c5.8,3.2,7.4,10.5,3.3,15.5c-1.5,1.8-3.4,3-5.6,3.6c-1,0.3-1.4,0.8-1.4,1.8c0,1,0,2,0,3c0,0.9-0.5,1.4-1.3,1.4c-1.1,0-2.1,0-3.2,0
			c-0.9,0-1.4-0.5-1.4-1.5c0-0.7,0-1.5,0-2.2c0-1.6-0.1-1.7-1.6-1.9c-2-0.3-3.9-0.8-5.8-1.6C158.3-286.1,158.1-286.4,158.5-287.9z"
			/>
	</g>
</g>
<g class="st1">
	<g class="st9">
		
			<linearGradient id="SVGID_8_" gradientUnits="userSpaceOnUse" x1="-223.34" y1="176.63" x2="-72.14" y2="176.63" gradientTransform="matrix(1 0 0 -1 0 180)">
			<stop  offset="0" style="stop-color:#388DFC"/>
			<stop  offset="1" style="stop-color:#4C4EEA"/>
		</linearGradient>
		<polygon class="st32" points="-205.3,30.9 -147.7,-11 -90.2,30.9 -72.1,30.9 -147.7,-24.1 -223.3,30.9 		"/>
		<g>
			
				<linearGradient id="SVGID_9_" gradientUnits="userSpaceOnUse" x1="-204.25" y1="77.855" x2="-91.22" y2="77.855" gradientTransform="matrix(1 0 0 -1 0 180)">
				<stop  offset="0" style="stop-color:#388DFC"/>
				<stop  offset="1" style="stop-color:#4C4EEA"/>
			</linearGradient>
			<rect x="-204.2" y="96.4" class="st33" width="113" height="11.5"/>
			
				<linearGradient id="SVGID_10_" gradientUnits="userSpaceOnUse" x1="-220.4" y1="59.855" x2="-75.07" y2="59.855" gradientTransform="matrix(1 0 0 -1 0 180)">
				<stop  offset="0" style="stop-color:#388DFC"/>
				<stop  offset="1" style="stop-color:#4C4EEA"/>
			</linearGradient>
			<rect x="-220.4" y="114.4" class="st34" width="145.3" height="11.5"/>
		</g>
		<g>
			
				<linearGradient id="SVGID_11_" gradientUnits="userSpaceOnUse" x1="-146.07" y1="116.31" x2="-136.8" y2="116.31" gradientTransform="matrix(1 0 0 -1 0 180)">
				<stop  offset="0" style="stop-color:#388DFC"/>
				<stop  offset="1" style="stop-color:#4C4EEA"/>
			</linearGradient>
			<path class="st35" d="M-140,57.1c-1.2-0.9-3.3-1.7-6.1-2.5v18.1c3.9-0.2,6.6-1.6,8.1-4.3c0.8-1.4,1.2-3,1.2-4.8
				C-136.8,60.8-137.9,58.6-140,57.1z"/>
			
				<linearGradient id="SVGID_12_" gradientUnits="userSpaceOnUse" x1="-157.72" y1="140.49" x2="-149.34" y2="140.49" gradientTransform="matrix(1 0 0 -1 0 180)">
				<stop  offset="0" style="stop-color:#388DFC"/>
				<stop  offset="1" style="stop-color:#4C4EEA"/>
			</linearGradient>
			<path class="st36" d="M-155.8,34.2c-1.3,1.7-1.9,3.5-1.9,5.4c0,2.3,0.8,4,2.3,5.3c1.5,1.3,3.6,2.2,6.1,2.7V31.4
				C-152.4,31.6-154.5,32.5-155.8,34.2z"/>
			
				<linearGradient id="SVGID_13_" gradientUnits="userSpaceOnUse" x1="-187.22" y1="126.905" x2="-108.26" y2="126.905" gradientTransform="matrix(1 0 0 -1 0 180)">
				<stop  offset="0" style="stop-color:#388DFC"/>
				<stop  offset="1" style="stop-color:#4C4EEA"/>
			</linearGradient>
			<path class="st37" d="M-147.7,13.6c-21.8,0-39.5,17.7-39.5,39.5c0,21.8,17.7,39.5,39.5,39.5s39.5-17.7,39.5-39.5
				C-108.3,31.3-125.9,13.6-147.7,13.6z M-136.6,75c-2.2,1.4-5.4,2.3-9.5,2.8v6.7h-3.3v-6.7c-6.7-0.4-11.2-2.8-13.6-7.1
				c-1.3-2.3-2-5.4-2-9.4h6.1c0.2,3.1,0.7,5.4,1.5,6.9c1.4,2.6,4.1,4,8,4.3V53.8c-5-1-8.6-2.5-11-4.7s-3.6-5.2-3.6-9.1
				c0-3.5,1.3-6.6,3.8-9.4c2.6-2.8,6.1-4.2,10.7-4.3v-4.6h3.3v4.5c4.6,0.3,8.1,1.6,10.5,4c2.4,2.4,3.7,5.5,3.8,9.4h-6
				c-0.2-1.7-0.6-3.2-1.4-4.5c-1.4-2.3-3.7-3.5-6.9-3.6v16.7c5.3,1.5,8.9,2.9,10.8,4.2c3.1,2.2,4.6,5.3,4.6,9.5
				C-130.6,68.1-132.6,72.4-136.6,75z"/>
		</g>
	</g>
</g>
</svg>
