<?xml version="1.0" encoding="utf-8"?>
<!-- Generator: Adobe Illustrator 24.3.0, SVG Export Plug-In . SVG Version: 6.00 Build 0)  -->
<svg version="1.1" id="Layer_1" xmlns="http://www.w3.org/2000/svg" xmlns:xlink="http://www.w3.org/1999/xlink" x="0px" y="0px"
	 viewBox="0 0 45 25" style="enable-background:new 0 0 45 25;" xml:space="preserve">
<style type="text/css">
	.st0{fill:#1E77FE;}
	.st1{fill:#50A5FF;}
	.st2{fill:#FFFFFF;}
	.st3{font-family:'Arial-Black';}
	.st4{font-size:12px;}
</style>
<g>
	<path class="st0" d="M1,22.5v-20C1,2.2,1.1,2,1.3,1.8C1.5,1.6,1.7,1.5,2,1.5h41c0.3,0,0.5,0.1,0.7,0.3C43.9,2,44,2.2,44,2.5v20
		c0,0.3-0.1,0.5-0.3,0.7s-0.4,0.3-0.7,0.3H2c-0.3,0-0.5-0.1-0.7-0.3S1,22.8,1,22.5z"/>
	<ellipse transform="matrix(0.3827 -0.9239 0.9239 0.3827 2.2601 29.1639)" class="st1" cx="23" cy="12.9" rx="8.2" ry="8.2"/>
	<path class="st0" d="M23,6.2c1.7,0,3.3,0.6,4.5,1.7c1.4,1.2,2.2,3,2.2,4.9c0,3.7-3,6.7-6.7,6.7s-6.7-3-6.7-6.7S19.3,6.2,23,6.2z"/>
	<text transform="matrix(1 0 0 1 19 16.5)" class="st2 st3 st4">$</text>
	<path class="st1" d="M39,9.5c0.4,0,0.8,0.1,1.1,0.2c0.4,0.2,0.7,0.4,1,0.7s0.5,0.6,0.7,1c0.2,0.4,0.2,0.8,0.2,1.1
		c0,0.4-0.1,0.8-0.2,1.1c-0.2,0.4-0.4,0.7-0.7,1c-0.3,0.3-0.6,0.5-1,0.7c-0.4,0.2-0.8,0.2-1.1,0.2c-0.4,0-0.8-0.1-1.1-0.2
		c-0.4-0.2-0.7-0.4-1-0.7c-0.3-0.3-0.5-0.6-0.7-1c-0.2-0.4-0.2-0.8-0.2-1.1s0.1-0.8,0.2-1.1c0.2-0.4,0.4-0.7,0.7-1s0.6-0.5,1-0.7
		C38.2,9.6,38.6,9.5,39,9.5z"/>
	<path class="st1" d="M6,9.5c0.4,0,0.8,0.1,1.1,0.2c0.4,0.2,0.7,0.4,1,0.7s0.5,0.6,0.7,1C8.9,11.7,9,12.1,9,12.5
		c0,0.4-0.1,0.8-0.2,1.1c-0.2,0.4-0.4,0.7-0.7,1c-0.3,0.3-0.6,0.5-1,0.7c-0.4,0.2-0.8,0.2-1.1,0.2c-0.4,0-0.8-0.1-1.1-0.2
		c-0.4-0.2-0.7-0.4-1-0.7c-0.3-0.3-0.5-0.6-0.7-1C3.1,13.3,3,12.9,3,12.5s0.1-0.8,0.2-1.1c0.2-0.4,0.4-0.7,0.7-1s0.6-0.5,1-0.7
		C5.2,9.6,5.6,9.5,6,9.5z"/>
</g>
</svg>
