<?xml version="1.0" encoding="utf-8"?>
<!-- Generator: Adobe Illustrator 24.3.0, SVG Export Plug-In . SVG Version: 6.00 Build 0)  -->
<svg version="1.1" id="Layer_1" xmlns="http://www.w3.org/2000/svg" xmlns:xlink="http://www.w3.org/1999/xlink" x="0px" y="0px"
	 viewBox="0 0 100.21 98.41" style="enable-background:new 0 0 100.21 98.41;" xml:space="preserve">
<style type="text/css">
	.st0{clip-path:url(#SVGID_2_);enable-background:new    ;}
	.st1{clip-path:url(#SVGID_4_);fill:#EDC4A9;}
	.st2{clip-path:url(#SVGID_4_);fill:#F4D4BD;}
	.st3{clip-path:url(#SVGID_4_);fill:#EFEEED;}
	.st4{clip-path:url(#SVGID_4_);fill:#9B273D;}
	.st5{clip-path:url(#SVGID_4_);fill:#C43348;}
	.st6{clip-path:url(#SVGID_4_);fill:#CCCCCC;}
	.st7{clip-path:url(#SVGID_4_);fill:#FFFFFF;}
	.st8{clip-path:url(#SVGID_4_);fill:#DDB59F;}
	.st9{clip-path:url(#SVGID_4_);fill:#E0C1AD;}
	.st10{clip-path:url(#SVGID_4_);fill:#E0DBD5;}
	.st11{clip-path:url(#SVGID_4_);fill:#89122F;}
	.st12{clip-path:url(#SVGID_4_);fill:#AF2E47;}
	.st13{clip-path:url(#SVGID_4_);fill:#5B5449;}
	.st14{clip-path:url(#SVGID_4_);fill:#49433A;}
</style>
<g>
	<defs>
		<ellipse id="SVGID_1_" cx="50.1" cy="49.21" rx="47.57" ry="46.29"/>
	</defs>
	<clipPath id="SVGID_2_">
		<use xlink:href="#SVGID_1_"  style="overflow:visible;"/>
	</clipPath>
	<g class="st0">
		<g>
			<defs>
				<rect id="SVGID_3_" x="-17" y="-17.89" width="134.32" height="134.32"/>
			</defs>
			<clipPath id="SVGID_4_">
				<use xlink:href="#SVGID_3_"  style="overflow:visible;"/>
			</clipPath>
			<path class="st1" d="M50.1,44.83H39.11v8.3v5.53c0,2.05,3.49,8.57,10.99,8.57V44.83z"/>
			<path class="st2" d="M50.1,17.43c-12.38,0-14.22,8.31-14.22,18.96c0,11.78,7.24,19.61,14.22,19.61V17.43z"/>
			<path class="st2" d="M36.05,34.97c-0.87-3.17-2.06-3.17-2.57-2.37c-0.5,0.8-0.12,2.73,0.73,5.79c0.69,2.46,1.37,3.61,2.34,2.68
				C37.52,40.15,36.05,34.97,36.05,34.97z"/>
			<path class="st3" d="M34.33,61.13c-0.04,0.01-0.07,0.01-0.11,0.02c-1.23,0.18-19.44,1.89-21.29,9.09
				C11.8,74.65,9.5,96.48,9.5,96.48H45.6h1.96h2.54v-28.8L34.33,61.13z"/>
			<polygon class="st4" points="50.1,75.62 46.75,75.62 46.03,96.48 50.1,96.48 			"/>
			<polygon class="st5" points="50.1,67.68 47.15,67.68 44.61,72.04 46.75,75.62 50.1,75.62 			"/>
			<path class="st6" d="M42.97,61.27l-3.86-3.63c-1.96,1.12-4.78,3.48-4.78,3.48l13.02,15.23l2.75-8.68l-0.21-0.22L42.97,61.27z"/>
			<path class="st7" d="M43.18,61.13l-4.06-3.48c-1.96,1.07-4.78,3.48-4.78,3.48l13.02,14.22l2.75-7.66v-0.62L43.18,61.13z"/>
			<path class="st8" d="M50.1,44.83h10.99v8.3v5.53c0,2.05-3.49,8.57-10.99,8.57V44.83z"/>
			<path class="st9" d="M50.1,17.43c12.38,0,14.22,8.31,14.22,18.96c0,11.78-7.24,19.61-14.22,19.61V17.43z"/>
			<path class="st9" d="M64.15,34.97c0.87-3.17,2.06-3.17,2.57-2.37c0.5,0.8,0.12,2.73-0.73,5.79c-0.69,2.46-1.37,3.61-2.34,2.68
				C62.69,40.15,64.15,34.97,64.15,34.97z"/>
			<path class="st10" d="M65.87,61.13c0.04,0.01,0.07,0.01,0.11,0.02h0c1.23,0.18,19.44,1.89,21.29,9.09
				c1.14,4.42,3.44,26.25,3.44,26.25H54.6h-1.96H50.1v-28.8L65.87,61.13z"/>
			<polygon class="st11" points="50.1,75.62 53.46,75.62 54.18,96.48 50.1,96.48 			"/>
			<polygon class="st12" points="50.1,67.68 53.05,67.68 55.6,72.04 53.46,75.62 50.1,75.62 			"/>
			<path class="st6" d="M57.24,61.27l3.86-3.63c1.96,1.12,4.78,3.48,4.78,3.48L52.85,76.36l-2.75-8.68l0.21-0.22L57.24,61.27z"/>
			<path class="st7" d="M57.03,61.13l4.06-3.48c1.96,1.07,4.78,3.48,4.78,3.48L52.85,75.34l-2.75-7.66v-0.62L57.03,61.13z"/>
			<path class="st13" d="M41.68,28.23c0,0,4.2-0.6,8.42-2.15v-1.3C46.36,27.03,41.68,28.23,41.68,28.23z"/>
			<path class="st13" d="M39.17,26.07c0.11-0.16,0.23-0.31,0.35-0.46c1.59-1.98,4.22-3.53,6.88-4.33
				C44.34,23.71,40.92,25.35,39.17,26.07z M35.29,19.26c-2.2,8.9,0.27,17.03,0.57,17.84c1.25,0.24,0.15-6.23,3.13-10.76
				c2.07-0.37,7.19-1.46,11.11-3.61V9.7C42.12,9.7,36.82,13.09,35.29,19.26z"/>
			<path class="st13" d="M42.71,26.98c0,0,3.87-0.72,7.39-2.62v-1.62C47.14,25.5,42.71,26.98,42.71,26.98z"/>
			<path class="st13" d="M50.1,22.72v0.02c0.02-0.01,0.03-0.03,0.05-0.04C50.13,22.71,50.12,22.71,50.1,22.72z"/>
			<path class="st14" d="M57.21,21.78c1.71,0.68,3.07,1.7,4.09,3.14c4.58,6.46,1.73,12.44,3.05,12.18c0.3-0.81,4.67-8.38,1.53-18.23
				c-0.91-2.85-3.92-3.26-3.92-3.26c0.48-3.35-1.92-6.5-1.92-6.5s0.38,1.47,0.35,3.06c-0.79-1.67-2.26-3.51-4.94-4.13
				c0,0,1.39,1.25,2.47,2.94c-0.02-0.01-0.04-0.02-0.06-0.03c-1.8-1.77-3.64-3.22-7.16-3.12c0,0,0.54,0.78,2.47,2.02
				c-0.98-0.1-2.01-0.14-3.07-0.14v13.02c0.02-0.01,0.03-0.02,0.05-0.02c-0.01,0.01-0.03,0.03-0.05,0.04v1.62
				c1.32-0.71,2.6-1.59,3.61-2.66c-0.85,1.18-2.16,2.21-3.61,3.08v1.3C52.84,25.07,55.58,23.67,57.21,21.78z"/>
		</g>
	</g>
</g>
</svg>
